# xmcd
#
# Track frame offsets:
#	150
#	1857
#	23504
#	46643
#	80687
#	109428
#	118112
#	135965
#	151611
#
# Disc length: 2383 seconds
#
# Revision: 0
# Processed by: cddbd v1.5.1PL2 Copyright (c) Steve Scherf et al.
# Submitted via: EasyCDDAExtractor 9.0.0.1
#
DISCID=5a094d09
DTITLE=Black Sabbath - Estadio Ramon Valero 14-09-83 Disc 1 Source 2 Remastere
DTITLE=d
DYEAR=1983
DGENRE=Hard Rock
TTITLE0=Supertzar
TTITLE1=Children Of The Grave
TTITLE2=Hot Line
TTITLE3=War Pigs
TTITLE4=Born Again
TTITLE5=Supernaut
TTITLE6=Drum Solo
TTITLE7=Rock'N'Roll Doctor
TTITLE8=Disturbing The Priest
EXTD=
EXTT0=
EXTT1=
EXTT2=
EXTT3=
EXTT4=
EXTT5=
EXTT6=
EXTT7=
EXTT8=
PLAYORDER=
